<svg xmlns="http://www.w3.org/2000/svg" viewBox="0 0 450 450"><defs><style>.cls-1{fill:#fff;}</style></defs><g id="Layer_2" data-name="Layer 2"><g id="Layer_1-2" data-name="Layer 1"><path class="cls-1" d="M0,0H450V450H0ZM224.5,34.59c-6.93.24-12.56.37-18.19.66a48.57,48.57,0,0,0-6.07.9c-3.73.66-7.47,1.35-11.19,2.08-2,.4-4,.87-6,1.39s-4.18,1.28-6.31,1.75-4.29.85-6.14,2.18a5.83,5.83,0,0,1-2.24.87c-2.59.49-5.17,1-7.3,2.72a3.64,3.64,0,0,1-1.21.5,45,45,0,0,0-6.37,2.79c-2.79,1.38-5.66,2.58-8.34,4.22s-5.35,2.92-8,4.37a4.82,4.82,0,0,0-.51.41q-3.54,2.53-7.09,5.06c-2.08,1.47-4.24,2.82-6.23,4.4-2.49,2-4.83,4.17-7.26,6.23-7.16,6.07-13.1,13.28-19.2,20.35a9,9,0,0,0-.66,1.13,12.27,12.27,0,0,1-.84,1.28q-1.38,1.82-2.8,3.6a19.73,19.73,0,0,0-3.69,5.91,1.33,1.33,0,0,1-.38.53c-1.41,1.17-2,2.82-2.81,4.4-.31.65-.8,1.21-1.17,1.83A29.28,29.28,0,0,0,82.87,117c-1.43,3.1-3.43,5.92-4.39,9.24-.08.27-.36.46-.49.72-.59,1.16-1.2,2.32-1.71,3.51s-.93,2.61-1.42,3.91c-.64,1.69-1.34,3.36-2,5.07-.47,1.3-.59,2.8-1.3,3.92a16.3,16.3,0,0,0-2.11,6.39,25,25,0,0,1-1.38,5.73,25.23,25.23,0,0,0-1.87,7.41,63.6,63.6,0,0,1-1.93,11.44,26.71,26.71,0,0,0-1,6.71c-.22,8.63-.38,17.26-.35,25.89A54.4,54.4,0,0,0,64.3,220c.82,3.32,1.35,6.73,2,10.09.41,1.92.83,3.85,1.35,5.75.58,2.1,1.28,4.17,1.92,6.25a21.47,21.47,0,0,0,1.31,4.16,21.75,21.75,0,0,1,2,5.54,26.63,26.63,0,0,0,1.43,3.88A32,32,0,0,1,76,259.18c.59,2.06,1.11,4.09,2.53,5.77a4,4,0,0,1,.72,1.59c.49,1.94,1.69,3.54,2.5,5.29,1.37,3,2.8,5.89,4.39,8.74s3,5.6,4.58,8.41c0,.06.1.1.14.16.61,1,1.21,2,1.81,3,1.62,2.67,3.22,5.33,4.84,8,.07.12.21.2.29.32.57.85,1.13,1.7,1.71,2.54s1.31,1.9,2,2.86c.33.48.64,1,1,1.45,1.64,2.49,3.23,5,4.94,7.46s3.38,4.53,5,6.8c1.56,2.11,3.08,4.24,4.62,6.35.17.23.44.39.63.61.64.78,1.27,1.57,1.9,2.35l1.36,1.71c.5.61,1,1.21,1.5,1.84,1.74,2.25,3.4,4.56,5.21,6.75,1.44,1.73,3.1,3.27,4.57,5,2.5,2.92,4.89,5.95,7.42,8.85,3.65,4.17,7.38,8.29,11.11,12.4,1.27,1.41,2.6,2.76,3.93,4.1,1.59,1.6,3.24,3.14,4.8,4.76s3,3.33,4.6,4.94c2,2,4,4,6,6,1.5,1.48,3,2.92,4.56,4.38s3.39,3.18,5,4.81,3.12,3.26,4.75,4.81c1.85,1.75,3.81,3.39,5.7,5.12q6.54,6,13.07,12c1.23,1.13,2.45,2.25,3.73,3.33,1.77,1.49,3.63,2.86,5.36,4.39,2.78,2.46,5.47,5,8.23,7.5a4.46,4.46,0,0,0,4.91.23c1.37-1.08,2.68-2.25,4-3.42,1.68-1.51,3.3-3.08,5-4.6,1.29-1.17,2.6-2.31,3.92-3.45,1.76-1.51,3.57-3,5.3-4.5s3.62-3.37,5.44-5c5.64-5.18,11.32-10.32,16.93-15.53,3.25-3,6.41-6.15,9.59-9.24,1.4-1.37,2.78-2.77,4.13-4.18,1.61-1.68,3.15-3.43,4.77-5.09s3.27-3.11,4.82-4.74q4.08-4.27,8-8.65c3.51-3.91,7-7.87,10.44-11.82,1.25-1.41,2.43-2.88,3.7-4.27,1.55-1.71,3.22-3.33,4.74-5.08,2-2.3,3.93-4.67,5.83-7.05,1.59-2,3.09-4.05,4.63-6.07l4.51-5.87c.84-1.09,1.68-2.18,2.51-3.28.61-.81,1.21-1.64,1.8-2.47.46-.65.89-1.32,1.36-2s1.11-1.5,1.69-2.24c.35-.46.77-.88,1.11-1.35.81-1.12,1.61-2.24,2.38-3.39.6-.91,1.14-1.86,1.7-2.8a5.81,5.81,0,0,1,.85-1.51,13.92,13.92,0,0,0,2.49-3.56c1.34-2.16,3-4.11,4-6.53a.88.88,0,0,1,.28-.33,8.51,8.51,0,0,0,2.46-3.82,5.13,5.13,0,0,1,.92-1.73,16.11,16.11,0,0,0,2.33-3.93c1.33-2.57,2.89-5,4.21-7.62.87-1.74,2.05-3.32,2.52-5.27a3.19,3.19,0,0,1,.64-1.38,14.38,14.38,0,0,0,2.87-5.85,14.49,14.49,0,0,1,.9-1.75c.66-1.45,1.32-2.9,1.92-4.37a17.6,17.6,0,0,1,1.41-3.66,14.43,14.43,0,0,0,2.12-5.23,15,15,0,0,1,1.33-3.92,18.39,18.39,0,0,0,1.83-5.36c.34-1.64.85-3.24,1.31-4.85.58-2,1.31-4,1.75-6.08.63-2.93.83-6,1.62-8.84a51.42,51.42,0,0,0,1.85-13.43c0-8.2.05-16.39-.14-24.58a45.67,45.67,0,0,0-1.15-9.55,89.86,89.86,0,0,1-1.9-11,23.32,23.32,0,0,0-1.29-6.42,37.21,37.21,0,0,1-2.22-8.45,12.74,12.74,0,0,0-1.29-4.14,19,19,0,0,1-2-5.31,27.63,27.63,0,0,0-1.21-3.74c-.62-1.62-1.35-3.2-2-4.8-.45-1.06-.89-2.14-1.39-3.19-.62-1.31-1.31-2.58-1.95-3.89-1.4-2.86-2.79-5.74-4.2-8.6a5.94,5.94,0,0,0-.56-.68c-.52-.78-1.07-1.55-1.55-2.36-1.56-2.61-3.1-5.24-4.66-7.86-.15-.25-.4-.43-.57-.66-1.6-2.08-3.21-4.15-4.79-6.24-1.44-1.91-2.7-4-4.28-5.75-3.47-4-7-7.83-10.69-11.6-1.88-1.93-4-3.6-6.09-5.35Q326.67,72.18,324,70c-2.15-1.72-4.29-3.47-6.52-5.07s-4.5-3-6.74-4.45c-.3-.2-.52-.52-.82-.72-.78-.52-1.57-1.05-2.39-1.51-2.66-1.49-5.34-2.94-8-4.42-.19-.1-.33-.3-.52-.4-1.22-.64-2.43-1.28-3.67-1.88s-2.39-1-3.58-1.59-2.33-1.17-3.52-1.7a23.35,23.35,0,0,1-3.62-1.51,13.69,13.69,0,0,0-5.27-2,10.88,10.88,0,0,1-3.73-1.19,18.82,18.82,0,0,0-6.38-2.19c-2.06-.45-4.06-1.15-6.08-1.75a18,18,0,0,0-2.3-.72c-6.07-.92-12.07-2.32-18.12-3.2C236.28,34.73,229.71,34.86,224.5,34.59Z"/><path d="M224.5,34.59c5.21.27,11.78.14,18.19,1.07,6.05.88,12.05,2.28,18.12,3.2a18,18,0,0,1,2.3.72c2,.6,4,1.3,6.08,1.75a18.82,18.82,0,0,1,6.38,2.19,10.88,10.88,0,0,0,3.73,1.19,13.69,13.69,0,0,1,5.27,2,23.35,23.35,0,0,0,3.62,1.51c1.19.53,2.34,1.15,3.52,1.7s2.4,1,3.58,1.59,2.45,1.24,3.67,1.88c.19.1.33.3.52.4,2.67,1.48,5.35,2.93,8,4.42.82.46,1.61,1,2.39,1.51.3.2.52.52.82.72,2.24,1.49,4.55,2.88,6.74,4.45S321.81,68.26,324,70q2.71,2.19,5.35,4.46c2.05,1.75,4.21,3.42,6.09,5.35,3.66,3.77,7.22,7.65,10.69,11.6,1.58,1.78,2.84,3.84,4.28,5.75,1.58,2.09,3.19,4.16,4.79,6.24.17.23.42.41.57.66,1.56,2.62,3.1,5.25,4.66,7.86.48.81,1,1.58,1.55,2.36a5.94,5.94,0,0,1,.56.68c1.41,2.86,2.8,5.74,4.2,8.6.64,1.31,1.33,2.58,1.95,3.89.5,1,.94,2.13,1.39,3.19.69,1.6,1.42,3.18,2,4.8a27.63,27.63,0,0,1,1.21,3.74,19,19,0,0,0,2,5.31,12.74,12.74,0,0,1,1.29,4.14,37.21,37.21,0,0,0,2.22,8.45,23.32,23.32,0,0,1,1.29,6.42,89.86,89.86,0,0,0,1.9,11,45.67,45.67,0,0,1,1.15,9.55c.19,8.19.16,16.38.14,24.58a51.42,51.42,0,0,1-1.85,13.43c-.79,2.88-1,5.91-1.62,8.84-.44,2.05-1.17,4.05-1.75,6.08-.46,1.61-1,3.21-1.31,4.85a18.39,18.39,0,0,1-1.83,5.36,15,15,0,0,0-1.33,3.92,14.43,14.43,0,0,1-2.12,5.23A17.6,17.6,0,0,0,370,260c-.6,1.47-1.26,2.92-1.92,4.37a14.49,14.49,0,0,0-.9,1.75,14.38,14.38,0,0,1-2.87,5.85,3.19,3.19,0,0,0-.64,1.38c-.47,2-1.65,3.53-2.52,5.27-1.32,2.6-2.88,5.05-4.21,7.62a16.11,16.11,0,0,1-2.33,3.93,5.13,5.13,0,0,0-.92,1.73,8.51,8.51,0,0,1-2.46,3.82.88.88,0,0,0-.28.33c-.92,2.42-2.61,4.37-4,6.53a13.92,13.92,0,0,1-2.49,3.56,5.81,5.81,0,0,0-.85,1.51c-.56.94-1.1,1.89-1.7,2.8-.77,1.15-1.57,2.27-2.38,3.39-.34.47-.76.89-1.11,1.35-.58.74-1.14,1.48-1.69,2.24s-.9,1.32-1.36,2c-.59.83-1.19,1.66-1.8,2.47-.83,1.1-1.67,2.19-2.51,3.28L326.63,331c-1.54,2-3,4.08-4.63,6.07-1.9,2.38-3.83,4.75-5.83,7.05-1.52,1.75-3.19,3.37-4.74,5.08-1.27,1.39-2.45,2.86-3.7,4.27-3.47,3.95-6.93,7.91-10.44,11.82q-3.94,4.38-8,8.65c-1.55,1.63-3.25,3.13-4.82,4.74s-3.16,3.41-4.77,5.09c-1.35,1.41-2.73,2.81-4.13,4.18-3.18,3.09-6.34,6.22-9.59,9.24-5.61,5.21-11.29,10.35-16.93,15.53-1.82,1.67-3.59,3.4-5.44,5s-3.54,3-5.3,4.5c-1.32,1.14-2.63,2.28-3.92,3.45-1.67,1.52-3.29,3.09-5,4.6-1.3,1.17-2.61,2.34-4,3.42a4.46,4.46,0,0,1-4.91-.23c-2.76-2.49-5.45-5-8.23-7.5-1.73-1.53-3.59-2.9-5.36-4.39-1.28-1.08-2.5-2.2-3.73-3.33q-6.54-6-13.07-12c-1.89-1.73-3.85-3.37-5.7-5.12-1.63-1.55-3.15-3.23-4.75-4.81s-3.37-3.21-5-4.81-3.06-2.9-4.56-4.38c-2-2-4-4-6-6-1.56-1.61-3-3.33-4.6-4.94s-3.21-3.16-4.8-4.76c-1.33-1.34-2.66-2.69-3.93-4.1-3.73-4.11-7.46-8.23-11.11-12.4-2.53-2.9-4.92-5.93-7.42-8.85-1.47-1.71-3.13-3.25-4.57-5-1.81-2.19-3.47-4.5-5.21-6.75-.48-.63-1-1.23-1.5-1.84l-1.36-1.71c-.63-.78-1.26-1.57-1.9-2.35-.19-.22-.46-.38-.63-.61-1.54-2.11-3.06-4.24-4.62-6.35-1.67-2.27-3.43-4.49-5-6.8s-3.3-5-4.94-7.46c-.32-.48-.63-1-1-1.45-.65-1-1.31-1.91-2-2.86s-1.14-1.69-1.71-2.54c-.08-.12-.22-.2-.29-.32-1.62-2.66-3.22-5.32-4.84-8-.6-1-1.2-2-1.81-3,0-.06-.11-.1-.14-.16-1.53-2.81-3-5.62-4.58-8.41s-3-5.77-4.39-8.74c-.81-1.75-2-3.35-2.5-5.29A4,4,0,0,0,78.5,265c-1.42-1.68-1.94-3.71-2.53-5.77a32,32,0,0,0-1.62-3.54,26.63,26.63,0,0,1-1.43-3.88,21.75,21.75,0,0,0-2-5.54,21.47,21.47,0,0,1-1.31-4.16c-.64-2.08-1.34-4.15-1.92-6.25-.52-1.9-.94-3.83-1.35-5.75-.69-3.36-1.22-6.77-2-10.09A54.4,54.4,0,0,1,63,206.9c0-8.63.13-17.26.35-25.89a26.71,26.71,0,0,1,1-6.71,63.6,63.6,0,0,0,1.93-11.44,25.23,25.23,0,0,1,1.87-7.41,25,25,0,0,0,1.38-5.73,16.3,16.3,0,0,1,2.11-6.39c.71-1.12.83-2.62,1.3-3.92.61-1.71,1.31-3.38,2-5.07.49-1.3.89-2.63,1.42-3.91s1.12-2.35,1.71-3.51c.13-.26.41-.45.49-.72,1-3.32,3-6.14,4.39-9.24a29.28,29.28,0,0,1,1.63-2.81c.37-.62.86-1.18,1.17-1.83.77-1.58,1.4-3.23,2.81-4.4a1.33,1.33,0,0,0,.38-.53,19.73,19.73,0,0,1,3.69-5.91q1.42-1.78,2.8-3.6a12.27,12.27,0,0,0,.84-1.28,9,9,0,0,1,.66-1.13c6.1-7.07,12-14.28,19.2-20.35,2.43-2.06,4.77-4.25,7.26-6.23,2-1.58,4.15-2.93,6.23-4.4q3.56-2.52,7.09-5.06a4.82,4.82,0,0,1,.51-.41c2.68-1.45,5.44-2.78,8-4.37s5.55-2.84,8.34-4.22a45,45,0,0,1,6.37-2.79,3.64,3.64,0,0,0,1.21-.5c2.13-1.75,4.71-2.23,7.3-2.72a5.83,5.83,0,0,0,2.24-.87c1.85-1.33,4-1.71,6.14-2.18s4.2-1.21,6.31-1.75,4-1,6-1.39c3.72-.73,7.46-1.42,11.19-2.08a48.57,48.57,0,0,1,6.07-.9C211.94,35,217.57,34.83,224.5,34.59ZM133.88,180.23c0,1.1.06,2.2,0,3.3-.49,7.92,1.93,15.14,5.38,22.08,1.17,2.35,2.54,4.61,3.85,6.88a35.08,35.08,0,0,0,11.27,12.36,25,25,0,0,1,2.18,1.82,46,46,0,0,0,5.42,4.41,63.75,63.75,0,0,0,9.21,4.59c6.08,2.38,12.33,4.22,19,4.08,3.72-.07,7.44-.28,11.17-.41a31.11,31.11,0,0,0,12-3,28.37,28.37,0,0,1,6.61-2.2c2.47-.46,4.19,1,4.76,3.45.37,1.64.65,3.3.92,5,.73,4.47,1.36,9,2.18,13.42a5.72,5.72,0,0,0,5.4,4.9,34.2,34.2,0,0,0,6.31-.27c2.69-.31,5.33-1,8-1.26,4.08-.45,6.31.89,7.66,5.16a24.64,24.64,0,0,1,.75,3.43c.59,3.53,1,7.1,1.74,10.6a16.69,16.69,0,0,0,1.83,4.64,3.87,3.87,0,0,0,2.18,1.66,15.77,15.77,0,0,0,4.12.43c1.9,0,3.79-.19,5.69-.34,4.81-.36,9.63-.64,14.42-1.15,5.24-.56,10.45-1.35,15.67-2,2.75-.35,5.52-.64,8.28-1a4.53,4.53,0,0,0,3.22-2,8,8,0,0,0,1.35-6.25c-.58-4.49-1.47-9-1.77-13.47a17.45,17.45,0,0,0-4.89-11.18,8.78,8.78,0,0,1-2.39-4.11,10.61,10.61,0,0,0-3.8-6c-.84-.69-1.79-1.24-2.69-1.86s-2-1.41-3-2.13a9.6,9.6,0,0,0-1.22-.93c-2.7-1.33-4.86-3.39-7.16-5.29-2.13-1.76-4.27-3.52-6.54-5.11-2-1.41-4.28-2.46-6.29-3.88-2.32-1.63-4.5-3.48-6.72-5.27-1.42-1.14-2.74-2.42-4.19-3.51-3.1-2.32-6.23-4.61-9.4-6.83-2.84-2-3.76-4.7-3.32-8,.26-2,.49-3.92.74-5.87,1-8.22.85-16.35-1.6-24.33a75.8,75.8,0,0,0-6.54-15.28,54.31,54.31,0,0,0-6.65-8.94,50.75,50.75,0,0,0-12.49-10.59c-4.33-2.52-9.09-4.33-13.67-6.42a6.25,6.25,0,0,0-1.91-.49c-4.43-.51-8.85-1.17-13.3-1.41a55.34,55.34,0,0,0-30.26,6.51c-5.66,3.1-11.16,6.49-15.41,11.45a81.83,81.83,0,0,0-6.63,8.95,85.13,85.13,0,0,0-5.27,9.6c-2.6,5.45-4.52,11.11-4.2,17.3C134,177,133.88,178.63,133.88,180.23Z"/><path class="cls-1" d="M133.88,180.23c0-1.6.07-3.22,0-4.82-.32-6.19,1.6-11.85,4.2-17.3a85.13,85.13,0,0,1,5.27-9.6,81.83,81.83,0,0,1,6.63-8.95c4.25-5,9.75-8.35,15.41-11.45a55.34,55.34,0,0,1,30.26-6.51c4.45.24,8.87.9,13.3,1.41a6.25,6.25,0,0,1,1.91.49c4.58,2.09,9.34,3.9,13.67,6.42A50.75,50.75,0,0,1,237,140.51a54.31,54.31,0,0,1,6.65,8.94,75.8,75.8,0,0,1,6.54,15.28c2.45,8,2.65,16.11,1.6,24.33-.25,1.95-.48,3.92-.74,5.87-.44,3.32.48,6,3.32,8,3.17,2.22,6.3,4.51,9.4,6.83,1.45,1.09,2.77,2.37,4.19,3.51,2.22,1.79,4.4,3.64,6.72,5.27,2,1.42,4.28,2.47,6.29,3.88,2.27,1.59,4.41,3.35,6.54,5.11,2.3,1.9,4.46,4,7.16,5.29a9.6,9.6,0,0,1,1.22.93c1,.72,2,1.43,3,2.13s1.85,1.17,2.69,1.86a10.61,10.61,0,0,1,3.8,6,8.78,8.78,0,0,0,2.39,4.11A17.45,17.45,0,0,1,312.69,259c.3,4.51,1.19,9,1.77,13.47a8,8,0,0,1-1.35,6.25,4.53,4.53,0,0,1-3.22,2c-2.76.31-5.53.6-8.28,1-5.22.65-10.43,1.44-15.67,2-4.79.51-9.61.79-14.42,1.15-1.9.15-3.79.32-5.69.34a15.77,15.77,0,0,1-4.12-.43,3.87,3.87,0,0,1-2.18-1.66,16.69,16.69,0,0,1-1.83-4.64c-.71-3.5-1.15-7.07-1.74-10.6a24.64,24.64,0,0,0-.75-3.43c-1.35-4.27-3.58-5.61-7.66-5.16-2.69.3-5.33.95-8,1.26a34.2,34.2,0,0,1-6.31.27,5.72,5.72,0,0,1-5.4-4.9c-.82-4.45-1.45-9-2.18-13.42-.27-1.66-.55-3.32-.92-5-.57-2.49-2.29-3.91-4.76-3.45a28.37,28.37,0,0,0-6.61,2.2,31.11,31.11,0,0,1-12,3c-3.73.13-7.45.34-11.17.41-6.64.14-12.89-1.7-19-4.08a63.75,63.75,0,0,1-9.21-4.59,46,46,0,0,1-5.42-4.41,25,25,0,0,0-2.18-1.82,35.08,35.08,0,0,1-11.27-12.36c-1.31-2.27-2.68-4.53-3.85-6.88-3.45-6.94-5.87-14.16-5.38-22.08C133.94,182.43,133.88,181.33,133.88,180.23Zm58.69,26.52c1,0,2.05.06,3.07,0a21.68,21.68,0,0,0,9.29-2.3,39,39,0,0,0,7.48-4.92c4.08-3.72,6.88-8.15,7.57-13.69a52.6,52.6,0,0,0,.33-7.43c-.07-4.82-1.84-9.16-4.29-13.19-3-4.85-7.48-8-12.55-10.23a21.7,21.7,0,0,0-7.25-1.54c-5.9-.39-11.61.12-16.79,3.62-6.37,4.3-10.6,10-12.28,17.46a21.18,21.18,0,0,0-.62,5.42c.25,6.18,1.78,11.9,5.83,16.87C177.63,203.26,184.11,207,192.57,206.75Z"/><path d="M192.57,206.75c-8.46.2-14.94-3.49-20.21-9.95-4.05-5-5.58-10.69-5.83-16.87a21.18,21.18,0,0,1,.62-5.42c1.68-7.5,5.91-13.16,12.28-17.46,5.18-3.5,10.89-4,16.79-3.62a21.7,21.7,0,0,1,7.25,1.54c5.07,2.23,9.59,5.38,12.55,10.23,2.45,4,4.22,8.37,4.29,13.19a52.6,52.6,0,0,1-.33,7.43c-.69,5.54-3.49,10-7.57,13.69a39,39,0,0,1-7.48,4.92,21.68,21.68,0,0,1-9.29,2.3C194.62,206.81,193.59,206.75,192.57,206.75Z"/></g></g></svg>