<?xml version="1.0" standalone="no"?>
<!DOCTYPE svg PUBLIC "-//W3C//DTD SVG 20010904//EN"
 "http://www.w3.org/TR/2001/REC-SVG-20010904/DTD/svg10.dtd">
<svg version="1.0" xmlns="http://www.w3.org/2000/svg"
 width="600.000000pt" height="600.000000pt" viewBox="0 0 600.000000 600.000000"
 preserveAspectRatio="xMidYMid meet">
<metadata>
Created by potrace 1.14, written by Peter Selinger 2001-2017
</metadata>
<g transform="translate(0.000000,600.000000) scale(0.100000,-0.100000)"
fill="#000000" stroke="none">
<path d="M2876 5933 c-1 -1 -18 -3 -37 -4 -18 -2 -38 -5 -43 -7 -5 -3 -32 -6
-60 -7 -28 -1 -51 -3 -51 -4 0 -1 -20 -3 -45 -5 -25 -2 -54 -6 -65 -9 -11 -4
-36 -9 -55 -12 -19 -3 -68 -15 -108 -25 -40 -11 -78 -18 -83 -15 -5 4 -9 1 -9
-5 0 -7 -7 -10 -15 -6 -8 3 -15 1 -15 -4 0 -7 -44 -22 -72 -24 -3 -1 -10 -4
-14 -8 -4 -5 -13 -8 -19 -8 -7 0 -30 -8 -51 -17 -22 -9 -41 -17 -44 -18 -5 -2
-29 -12 -103 -44 -26 -11 -50 -20 -54 -20 -3 0 -9 -3 -12 -8 -3 -4 -30 -19
-58 -33 -29 -14 -53 -29 -53 -33 0 -5 -4 -5 -10 -2 -5 3 -10 1 -10 -4 0 -6 -6
-11 -14 -11 -7 0 -19 -7 -26 -15 -7 -9 -15 -13 -17 -11 -3 3 -14 -4 -26 -15
-11 -10 -27 -19 -34 -19 -7 0 -13 -4 -13 -10 0 -5 -5 -10 -10 -10 -11 0 -177
-123 -244 -181 -74 -64 -286 -282 -291 -300 -4 -11 -10 -19 -14 -19 -4 0 -23
-22 -42 -50 -19 -27 -37 -50 -41 -50 -5 0 -8 -4 -8 -8 0 -4 -34 -59 -75 -121
-41 -63 -72 -117 -70 -121 2 -4 -5 -16 -15 -28 -11 -12 -20 -23 -20 -26 0 -3
-20 -49 -45 -102 -25 -53 -45 -102 -45 -110 0 -8 -4 -14 -8 -14 -5 0 -9 -6
-10 -12 0 -7 -16 -56 -35 -108 -31 -89 -44 -132 -50 -170 -2 -9 -6 -21 -10
-28 -5 -6 -10 -26 -12 -44 -2 -18 -7 -44 -10 -58 -3 -14 -8 -42 -11 -64 -2
-21 -7 -42 -10 -47 -7 -11 -17 -146 -18 -241 -1 -43 -3 -78 -6 -78 -3 0 -6
-29 -5 -65 0 -36 2 -65 5 -65 3 0 6 -35 6 -78 2 -87 10 -173 20 -217 3 -16 7
-44 8 -60 1 -17 5 -36 10 -43 4 -6 5 -12 2 -12 -2 0 0 -15 5 -32 6 -18 12 -44
14 -58 3 -14 6 -32 8 -40 13 -52 19 -77 24 -90 4 -8 7 -17 8 -20 1 -3 4 -12 7
-20 3 -8 13 -37 23 -65 9 -27 20 -59 25 -70 5 -11 14 -37 21 -58 7 -20 17 -37
21 -37 4 0 7 -3 6 -7 -3 -13 25 -83 34 -83 4 0 8 -9 8 -20 0 -11 4 -20 9 -20
7 0 13 -14 20 -45 2 -7 79 -128 91 -142 5 -7 10 -17 10 -22 0 -5 6 -16 13 -23
6 -7 32 -42 57 -78 51 -74 67 -95 94 -121 11 -11 17 -19 15 -19 -10 0 87 -103
221 -236 325 -321 500 -491 500 -487 0 2 12 -10 27 -29 15 -18 36 -39 47 -47
11 -8 113 -107 227 -220 364 -360 498 -489 504 -483 3 3 5 1 5 -5 0 -14 75
-93 88 -93 6 0 14 -9 17 -20 3 -11 10 -20 15 -20 5 0 63 -54 129 -120 66 -66
124 -120 130 -120 6 0 57 48 113 106 57 58 167 170 245 249 78 79 139 146 136
149 -4 3 -1 6 5 6 16 0 52 37 44 44 -3 3 2 6 11 6 8 0 18 9 22 19 3 11 15 23
26 26 11 4 18 9 16 11 -2 3 76 87 175 187 98 100 273 278 388 395 116 117 210
214 210 216 0 2 75 80 168 173 215 218 261 269 358 399 32 43 63 82 69 86 5 4
6 8 1 8 -5 0 3 12 17 26 15 15 24 30 22 34 -3 5 5 21 18 37 36 42 78 119 70
126 -3 4 -2 7 4 7 6 0 14 11 17 25 4 14 11 25 16 25 6 0 10 9 10 20 0 11 5 20
12 20 6 0 8 3 5 6 -3 4 -1 16 5 28 7 11 13 23 13 26 1 3 12 28 25 55 12 28 23
56 23 63 0 6 4 12 9 12 5 0 7 4 4 8 -3 5 1 20 9 35 7 14 11 28 7 31 -3 3 -1 6
4 6 5 0 10 14 11 32 1 17 6 34 10 37 5 3 9 12 11 20 1 7 10 41 18 75 8 33 17
69 19 79 2 10 6 26 9 35 3 9 7 33 10 52 3 19 8 46 11 60 6 26 15 111 19 170 1
19 5 41 9 48 5 7 3 12 -5 12 -8 0 -9 3 -3 8 8 6 13 292 5 312 -1 3 -3 23 -4
45 -4 53 -17 175 -23 200 -2 11 -7 34 -9 50 -3 17 -10 48 -15 70 -6 22 -15 60
-20 85 -6 25 -14 54 -18 65 -15 35 -36 110 -33 118 1 4 -2 7 -8 7 -5 0 -7 7
-4 15 4 8 1 15 -5 15 -6 0 -10 3 -10 8 1 4 0 9 -1 12 -1 3 -3 12 -5 20 -1 8
-14 41 -29 72 -14 31 -26 62 -26 68 0 6 -4 16 -10 23 -5 7 -30 51 -55 99 -57
111 -66 128 -87 152 -10 11 -18 24 -18 28 0 5 -18 33 -40 63 -22 30 -40 58
-40 64 0 5 -7 11 -15 15 -8 3 -15 12 -15 20 0 8 -4 16 -8 18 -5 2 -43 44 -85
93 -109 130 -191 208 -378 359 -8 7 -30 21 -47 32 -18 10 -32 22 -32 27 0 4
-4 5 -10 2 -5 -3 -10 -2 -10 3 0 4 -18 18 -40 31 -22 12 -40 27 -40 33 0 5 -6
8 -14 5 -8 -3 -16 0 -19 6 -4 12 -305 167 -324 167 -5 0 -23 7 -40 15 -63 32
-348 113 -458 130 -27 5 -57 10 -65 12 -8 2 -40 5 -70 7 -30 2 -55 5 -55 6 0
1 -22 4 -50 5 -27 2 -52 4 -55 5 -8 2 -261 5 -264 3z"/>
</g>
</svg>
